<svg xmlns="http://www.w3.org/2000/svg" width="21" height="22"><g fill="#A9A9A9"><path d="M19.251 2.025h-2.845V.648c0-.381-.295-.689-.656-.689-.363 0-.656.308-.656.689v1.377h-3.938V.648c0-.381-.294-.689-.655-.689-.363 0-.657.308-.657.689v1.377H5.906V.648c0-.381-.294-.689-.656-.689-.363 0-.657.308-.657.689v1.377H1.75C.784 2.025 0 2.847 0 3.862v16.302C0 21.18.784 22 1.75 22h17.501c.966 0 1.749-.82 1.749-1.836V3.862c0-1.015-.783-1.837-1.749-1.837zm.437 18.139a.447.447 0 0 1-.436.459H1.75a.45.45 0 0 1-.438-.459V3.862a.45.45 0 0 1 .438-.459h2.844v1.378c0 .381.294.688.657.688.362 0 .656-.308.656-.688V3.403h3.938v1.378c0 .381.294.688.657.688.361 0 .655-.308.655-.688V3.403h3.938v1.378c0 .381.293.688.654.688s.656-.308.656-.688V3.403h2.845a.451.451 0 0 1 .438.459v16.302z"/><path d="M4.594 8.225h2.625v2.066H4.594V8.225zm0 3.443h2.625v2.066H4.594v-2.066zm0 3.443h2.625v2.065H4.594v-2.065zm4.594 0h2.625v2.065H9.188v-2.065zm0-3.443h2.625v2.066H9.188v-2.066zm0-3.443h2.625v2.066H9.188V8.225zm4.593 6.886h2.625v2.065h-2.625v-2.065zm0-3.443h2.625v2.066h-2.625v-2.066zm0-3.443h2.625v2.066h-2.625V8.225z"/></g></svg>