<svg xmlns="http://www.w3.org/2000/svg" width="844.719" height="595.281" viewBox="0 0 844.719 595.281"><title>logo_name</title><path fill="#BDBBBC" d="M350.147 362.826c1.478-.066 2.938-.342 4.336-.822v10.465c-2.96 1.118-6.104 1.677-9.27 1.644-5.502.52-10.738-2.47-13.082-7.475-6.967 5.638-15.706 8.63-24.668 8.446-11.886 0-22.875-6.504-22.875-20.035 0-16.743 15.548-21.9 29.154-21.9 5.732.083 11.44.735 17.045 1.942v-2.316c0-8.148-5.98-13.904-17.193-13.904-8.112.012-16.133 1.717-23.547 5.008V310.5c8.064-2.77 16.518-4.23 25.042-4.337 18.54 0 29.902 8.822 29.902 28.63v23.474c-.22 2.344 1.5 4.422 3.843 4.64.44.04.884.012 1.314-.08zm-50.533-8.897c.463 5.845 5.576 10.206 11.42 9.743.28-.02.56-.057.84-.1 7.044.11 13.846-2.578 18.912-7.477V344.81c-4.672-.992-9.428-1.543-14.203-1.645-8.223.074-16.97 2.615-16.97 10.838v-.074zM396.645 306.013c7.054-.162 14.023 1.568 20.184 5.008v13.382c-5.344-3.598-11.65-5.5-18.092-5.457-11.89-.992-22.333 7.844-23.324 19.734-.99 11.89 7.844 22.33 19.734 23.323 1.195.1 2.396.1 3.59 0 6.677-.023 13.236-1.748 19.063-5.008v13.455c-6.79 3.123-14.205 4.656-21.678 4.484-18.206 1.246-33.975-12.502-35.22-30.707-.075-1.074-.095-2.154-.064-3.23-.606-18.734 14.088-34.412 32.822-35.02.994-.032 1.99-.02 2.985.036zM492.18 362.826c1.477-.066 2.938-.342 4.336-.822v10.465c-2.96 1.118-6.105 1.677-9.27 1.644-5.502.52-10.738-2.47-13.082-7.475-6.97 5.638-15.707 8.63-24.67 8.446-11.885 0-22.873-6.504-22.873-20.035 0-16.743 15.55-21.9 29.153-21.9 5.732.083 11.44.735 17.045 1.942v-2.316c0-8.148-5.98-13.904-17.193-13.904-8.113.012-16.133 1.717-23.547 5.008V310.5c8.063-2.77 16.518-4.23 25.04-4.337 18.54 0 29.903 8.822 29.903 28.63v23.474c-.218 2.344 1.503 4.422 3.845 4.64.44.04.884.012 1.315-.08zm-50.533-8.897c.463 5.845 5.574 10.206 11.42 9.743.28-.02.56-.057.84-.1 7.045.11 13.846-2.578 18.912-7.477V344.81c-4.673-.992-9.43-1.543-14.204-1.645-8.3.074-16.97 2.615-16.97 10.838v-.074zM573.14 277.83v95.386h-13.16v-10.39c-5.903 7.84-15.23 12.35-25.04 12.108-19.033-1.254-33.445-17.7-32.19-36.732 1.138-17.285 14.905-31.05 32.19-32.19 8.988-.302 17.637 3.46 23.547 10.24V277.83h14.95-.298zm-35.585 40.964c-11.973.025-21.658 9.752-21.633 21.725.025 11.937 9.695 21.608 21.633 21.632 9.1.072 17.338-5.363 20.857-13.754v-15.922c-3.636-8.283-11.812-13.646-20.857-13.682zM620.383 306.013c26.014 0 34.984 21.006 30.8 39.918h-49.19c1.645 11.737 13.082 16.597 25.043 16.597 7.162.02 14.238-1.563 20.707-4.635v12.56c-7.41 3.163-15.416 4.692-23.473 4.483-20.033 0-37.377-11.438-37.377-34.46-.912-18.103 13.02-33.517 31.123-34.43.79-.038 1.578-.05 2.367-.032zm.672 12.11c-9.838-.756-18.426 6.605-19.182 16.443-.012.15-.02.3-.03.45H638.1c.88-8.458-5.266-16.028-13.725-16.91-1.103-.112-2.216-.108-3.32.017zM666.057 373.216v-65.41h12.934v8.148c5.57-6.215 13.483-9.82 21.83-9.94 8.206-.52 16.038 3.497 20.407 10.464 5.9-6.43 14.15-10.203 22.873-10.465 13.244-.518 24.398 9.8 24.914 23.04.043 1.093.012 2.185-.096 3.272v40.89h-14.95v-40.44c.708-6.86-4.278-12.992-11.136-13.7-.598-.062-1.197-.08-1.797-.056-6.44.415-12.37 3.642-16.22 8.82v45.375h-14.952v-40.44c.707-6.86-4.28-12.992-11.137-13.7-.596-.062-1.197-.08-1.797-.056-7.01.567-13.386 4.278-17.343 10.09v44.18h-14.95l1.42-.074zM833.282 307.806h14.95l-30.647 74.23c-7.102 17.045-16.37 22.426-26.314 22.426-2.897-.04-5.782-.414-8.595-1.12v-12.41c2.156.657 4.398.985 6.652.972 7.102 0 12.41-5.008 16.223-14.95l1.346-3.288-31.098-65.934h15.922l22.426 49.338 19.136-49.264zM303.95 163.307v37.377c5.576-5.688 13.19-8.918 21.155-8.97 14.053-.844 26.128 9.866 26.97 23.92.056.92.06 1.844.016 2.766v40.442h-14.95V220.27c.84-7.8-4.803-14.802-12.602-15.64-.78-.085-1.565-.105-2.35-.06-7.495.447-14.303 4.52-18.24 10.915v43.357H289v-95.536h14.952zM391.935 169.96v23.323h23.697v12.783h-23.697v29.9c0 8.598 3.962 11.44 12.41 11.44 4.538-.013 9.03-.9 13.23-2.617v12.558c-5.654 1.923-11.593 2.883-17.566 2.84-10.982 1.36-20.985-6.442-22.343-17.422-.17-1.362-.197-2.738-.084-4.106v-32.742h-11.96v-12.783h11.737V173.4l14.575-3.44zM434.32 258.693v-65.41h12.933v8.148c5.57-6.214 13.484-9.818 21.828-9.94 8.208-.518 16.04 3.5 20.41 10.465 5.9-6.43 14.15-10.204 22.874-10.466 13.242-.518 24.396 9.798 24.914 23.04.043 1.093.01 2.186-.096 3.273v40.89h-14.95v-40.44c.708-6.86-4.278-12.992-11.138-13.7-.596-.062-1.195-.08-1.795-.055-6.442.416-12.374 3.642-16.224 8.82v45.376h-14.95v-40.44c.708-6.86-4.278-12.992-11.138-13.7-.596-.062-1.195-.08-1.795-.055-7.01.567-13.387 4.277-17.344 10.09v44.18H432.9l1.42-.077zM558.56 163.232h14.58v95.386h-14.58zM115.42 152.02h-1.196L0 163.98v209.31l114.224 67.952 114.224-67.95V163.98L115.42 152.02zm98.077 212.675l-99.273 59.055-99.273-59.055v-85.818l98.826 58.832v10.688L45.974 308.03v10.317l68.1 40.89v10.915L46.05 329.634v10.316l68.1 40.89 68.7-41.114v-44.18l30.648-18.315V364.696zm0-98.377l-27.285 15.997-12.56 7.476-59.802-35.582v10.316l51.13 30.425h-.448l-1.12.67-7.477 4.262-42.16-25.117v10.316l33.265 19.812-7.85 5.232-25.116-14.95v10.315l16.52 9.716-16.82 10.092L15.4 266.84l98.45-59.205 99.647 58.683zm0-10.39L113.7 197.094l-98.674 58.757V177.36l99.273-10.39 99.272 10.39v78.566h-.075z"/></svg>